<svg xmlns="http://www.w3.org/2000/svg" xmlns:xlink="http://www.w3.org/1999/xlink" width="450" zoomAndPan="magnify" viewBox="0 0 337.5 149.999998" height="200" preserveAspectRatio="xMidYMid meet" version="1.0"><defs><g/><clipPath id="37099bda5d"><path d="M 262.367188 75 L 266.914062 75 L 266.914062 79.546875 L 262.367188 79.546875 Z M 262.367188 75 " clip-rule="nonzero"/></clipPath><clipPath id="968e05dbde"><path d="M 264.640625 75 C 263.382812 75 262.367188 76.019531 262.367188 77.273438 C 262.367188 78.53125 263.382812 79.546875 264.640625 79.546875 C 265.894531 79.546875 266.914062 78.53125 266.914062 77.273438 C 266.914062 76.019531 265.894531 75 264.640625 75 Z M 264.640625 75 " clip-rule="nonzero"/></clipPath></defs><g fill="#000000" fill-opacity="1"><g transform="translate(82.974842, 112.031113)"><g><path d="M 129.6875 -47.9375 C 128.726562 -47.6875 127.753906 -47.445312 126.765625 -47.21875 C 125.878906 -46.96875 124.976562 -46.726562 124.0625 -46.5 C 117.59375 -44.75 111.171875 -42.800781 104.796875 -40.65625 C 97.472656 -38.238281 90.203125 -35.59375 82.984375 -32.71875 C 81.710938 -32.238281 80.585938 -31.523438 79.609375 -30.578125 C 71.648438 -23.171875 63.3125 -16.316406 54.59375 -10.015625 C 45.875 -3.722656 36.832031 2.097656 27.46875 7.453125 C 23.375 9.867188 19.171875 12.035156 14.859375 13.953125 C 12.847656 14.816406 10.773438 15.5 8.640625 16 C 8.367188 16.070312 8.09375 16.132812 7.8125 16.1875 C 6.84375 16.382812 5.890625 16.375 4.953125 16.15625 C 3.492188 15.789062 2.921875 14.863281 3.234375 13.375 C 3.492188 12.3125 3.976562 11.332031 4.6875 10.4375 C 6.039062 8.582031 7.609375 6.921875 9.390625 5.453125 C 13.765625 1.828125 18.359375 -1.488281 23.171875 -4.5 C 27.941406 -7.550781 32.804688 -10.421875 37.765625 -13.109375 C 37.898438 -13.160156 38.023438 -13.226562 38.140625 -13.3125 C 38.296875 -13.425781 38.472656 -13.53125 38.671875 -13.625 C 39.398438 -13.976562 39.828125 -14.578125 39.953125 -15.421875 C 40.210938 -16.671875 40.488281 -17.929688 40.78125 -19.203125 C 40.832031 -19.398438 40.882812 -19.617188 40.9375 -19.859375 C 41.582031 -22.703125 42.234375 -25.5625 42.890625 -28.4375 C 44.160156 -33.882812 45.410156 -39.335938 46.640625 -44.796875 C 47.484375 -48.234375 48.046875 -51.722656 48.328125 -55.265625 C 48.328125 -55.585938 48.375 -55.910156 48.46875 -56.234375 C 48.664062 -56.660156 48.988281 -56.851562 49.4375 -56.8125 C 49.59375 -56.894531 49.78125 -56.925781 50 -56.90625 C 50.15625 -56.894531 50.300781 -56.835938 50.4375 -56.734375 C 50.570312 -56.640625 50.65625 -56.515625 50.6875 -56.359375 C 50.8125 -55.847656 50.863281 -55.34375 50.84375 -54.84375 C 50.707031 -51.726562 50.257812 -48.644531 49.5 -45.59375 C 48.21875 -40.132812 46.929688 -34.660156 45.640625 -29.171875 C 45.117188 -26.929688 44.59375 -24.6875 44.0625 -22.4375 C 43.957031 -22 43.851562 -21.570312 43.75 -21.15625 C 43.445312 -19.78125 43.128906 -18.394531 42.796875 -17 C 42.773438 -16.945312 42.765625 -16.910156 42.765625 -16.890625 C 42.710938 -16.734375 42.6875 -16.585938 42.6875 -16.453125 C 42.695312 -16.316406 42.785156 -16.203125 42.953125 -16.109375 C 42.972656 -16.097656 43.019531 -16.082031 43.09375 -16.0625 C 43.144531 -16.101562 43.210938 -16.140625 43.296875 -16.171875 C 43.316406 -16.171875 43.34375 -16.175781 43.375 -16.1875 C 44.644531 -16.832031 45.894531 -17.46875 47.125 -18.09375 C 49.332031 -19.238281 51.523438 -20.378906 53.703125 -21.515625 C 61.492188 -25.359375 69.40625 -28.898438 77.4375 -32.140625 C 78.394531 -32.535156 79.242188 -33.082031 79.984375 -33.78125 C 82.066406 -35.84375 84.109375 -37.941406 86.109375 -40.078125 C 88.109375 -42.210938 90.007812 -44.4375 91.8125 -46.75 C 93.769531 -49.175781 95.476562 -51.804688 96.9375 -54.640625 C 97.820312 -56.253906 98.40625 -57.988281 98.6875 -59.84375 C 99.019531 -62.675781 98.140625 -64.972656 96.046875 -66.734375 C 95.265625 -67.398438 94.421875 -67.9375 93.515625 -68.34375 C 92.617188 -68.757812 91.691406 -69.09375 90.734375 -69.34375 C 87.410156 -70.175781 84.035156 -70.503906 80.609375 -70.328125 C 77.617188 -70.210938 74.660156 -69.921875 71.734375 -69.453125 C 69.054688 -69.015625 66.398438 -68.46875 63.765625 -67.8125 C 56.992188 -66.15625 50.375 -64.019531 43.90625 -61.40625 C 39.488281 -59.65625 35.203125 -57.679688 31.046875 -55.484375 C 26.890625 -53.296875 22.914062 -50.734375 19.125 -47.796875 C 17.726562 -46.753906 16.382812 -45.648438 15.09375 -44.484375 C 13.8125 -43.328125 12.601562 -42.082031 11.46875 -40.75 C 10.632812 -39.664062 9.867188 -38.546875 9.171875 -37.390625 C 8.648438 -36.609375 8.320312 -35.738281 8.1875 -34.78125 C 7.957031 -33.300781 8.457031 -32.15625 9.6875 -31.34375 C 10.425781 -30.820312 11.25 -30.476562 12.15625 -30.3125 C 13.707031 -29.945312 15.269531 -29.835938 16.84375 -29.984375 C 17.6875 -30.046875 18.539062 -30.132812 19.40625 -30.25 C 20.539062 -30.382812 21.679688 -30.515625 22.828125 -30.640625 C 23.753906 -30.734375 24.671875 -30.789062 25.578125 -30.8125 C 25.691406 -30.800781 25.800781 -30.757812 25.90625 -30.6875 C 26.007812 -30.613281 26.097656 -30.53125 26.171875 -30.4375 C 26.234375 -30.195312 26.195312 -30.03125 26.0625 -29.9375 C 25.9375 -29.851562 25.796875 -29.8125 25.640625 -29.8125 L 25.375 -29.765625 C 25.300781 -29.753906 25.222656 -29.738281 25.140625 -29.71875 C 24.316406 -29.632812 23.507812 -29.523438 22.71875 -29.390625 C 22.457031 -29.347656 22.191406 -29.304688 21.921875 -29.265625 C 21.523438 -29.203125 21.113281 -29.132812 20.6875 -29.0625 L 20.640625 -29.0625 C 19.484375 -28.875 18.332031 -28.710938 17.1875 -28.578125 C 16.039062 -28.441406 14.875 -28.398438 13.6875 -28.453125 C 12.375 -28.523438 11.066406 -28.75 9.765625 -29.125 C 9.066406 -29.332031 8.394531 -29.617188 7.75 -29.984375 C 5.8125 -31.117188 5.097656 -32.820312 5.609375 -35.09375 C 5.972656 -36.59375 6.625 -37.960938 7.5625 -39.203125 C 8.769531 -40.941406 10.144531 -42.554688 11.6875 -44.046875 C 15.882812 -48.023438 20.484375 -51.445312 25.484375 -54.3125 C 29.515625 -56.664062 33.644531 -58.765625 37.875 -60.609375 C 42.113281 -62.453125 46.441406 -64.109375 50.859375 -65.578125 C 57.617188 -67.941406 64.53125 -69.710938 71.59375 -70.890625 C 71.8125 -70.921875 72.035156 -70.957031 72.265625 -71 C 74.953125 -71.4375 77.640625 -71.726562 80.328125 -71.875 C 83.023438 -72.03125 85.734375 -71.957031 88.453125 -71.65625 C 90.679688 -71.40625 92.84375 -70.878906 94.9375 -70.078125 C 96.039062 -69.640625 97.050781 -69.070312 97.96875 -68.375 C 101.039062 -66.082031 102.179688 -62.992188 101.390625 -59.109375 C 101.035156 -57.390625 100.425781 -55.742188 99.5625 -54.171875 C 98.007812 -51.234375 96.1875 -48.46875 94.09375 -45.875 C 91.539062 -42.6875 88.835938 -39.632812 85.984375 -36.71875 C 85.910156 -36.625 85.804688 -36.539062 85.671875 -36.46875 C 85.515625 -36.320312 85.363281 -36.160156 85.21875 -35.984375 C 85.082031 -35.816406 85.003906 -35.601562 84.984375 -35.34375 C 85.109375 -35.269531 85.21875 -35.242188 85.3125 -35.265625 C 85.445312 -35.304688 85.578125 -35.347656 85.703125 -35.390625 C 85.835938 -35.484375 85.976562 -35.554688 86.125 -35.609375 C 94.226562 -38.679688 102.421875 -41.457031 110.703125 -43.9375 C 114.691406 -45.101562 118.664062 -46.234375 122.625 -47.328125 C 124 -47.679688 125.363281 -48.039062 126.71875 -48.40625 C 127.175781 -48.550781 127.664062 -48.664062 128.1875 -48.75 C 128.664062 -48.851562 129.148438 -48.882812 129.640625 -48.84375 C 129.710938 -48.820312 129.78125 -48.78125 129.84375 -48.71875 C 129.914062 -48.664062 129.957031 -48.617188 129.96875 -48.578125 C 130.03125 -48.398438 130.019531 -48.257812 129.9375 -48.15625 C 129.863281 -48.0625 129.78125 -47.988281 129.6875 -47.9375 Z M 37.90625 -1.0625 C 37.90625 -1.0625 37.914062 -1.0625 37.9375 -1.0625 C 38.132812 -1.1875 38.3125 -1.332031 38.46875 -1.5 C 38.625 -1.675781 38.710938 -1.890625 38.734375 -2.140625 C 38.671875 -2.128906 38.625 -2.117188 38.59375 -2.109375 C 38.03125 -2.003906 37.65625 -2.023438 37.46875 -2.171875 C 37.289062 -2.328125 37.234375 -2.648438 37.296875 -3.140625 C 37.328125 -3.472656 37.390625 -3.804688 37.484375 -4.140625 C 37.503906 -4.234375 37.519531 -4.304688 37.53125 -4.359375 C 37.664062 -4.972656 37.789062 -5.566406 37.90625 -6.140625 C 38.21875 -7.441406 38.503906 -8.757812 38.765625 -10.09375 C 38.785156 -10.15625 38.8125 -10.234375 38.84375 -10.328125 C 38.894531 -10.535156 38.914062 -10.734375 38.90625 -10.921875 C 38.90625 -11.109375 38.832031 -11.296875 38.6875 -11.484375 C 38.664062 -11.472656 38.640625 -11.46875 38.609375 -11.46875 C 38.472656 -11.425781 38.351562 -11.359375 38.25 -11.265625 C 38.164062 -11.234375 38.097656 -11.195312 38.046875 -11.15625 C 34.648438 -9.257812 31.300781 -7.296875 28 -5.265625 C 24.707031 -3.234375 21.484375 -1.085938 18.328125 1.171875 C 15.753906 2.953125 13.289062 4.882812 10.9375 6.96875 C 9.582031 8.113281 8.378906 9.414062 7.328125 10.875 C 6.753906 11.601562 6.367188 12.4375 6.171875 13.375 C 6.109375 13.675781 6.15625 13.945312 6.3125 14.1875 C 6.476562 14.425781 6.734375 14.5625 7.078125 14.59375 C 7.453125 14.644531 7.835938 14.640625 8.234375 14.578125 C 8.671875 14.503906 9.09375 14.390625 9.5 14.234375 C 12.175781 13.304688 14.796875 12.179688 17.359375 10.859375 C 22.921875 8.035156 28.351562 4.960938 33.65625 1.640625 C 35.082031 0.773438 36.5 -0.125 37.90625 -1.0625 Z M 74.015625 -28.25 C 74.023438 -28.3125 74.054688 -28.363281 74.109375 -28.40625 C 74.203125 -28.476562 74.269531 -28.5625 74.3125 -28.65625 C 74.363281 -28.757812 74.332031 -28.882812 74.21875 -29.03125 C 74.082031 -28.976562 73.929688 -28.90625 73.765625 -28.8125 C 72.847656 -28.414062 71.9375 -28.03125 71.03125 -27.65625 C 68.5625 -26.539062 66.101562 -25.425781 63.65625 -24.3125 C 56.863281 -21.15625 50.164062 -17.800781 43.5625 -14.25 C 42.976562 -13.945312 42.507812 -13.585938 42.15625 -13.171875 C 41.8125 -12.765625 41.601562 -12.238281 41.53125 -11.59375 C 41.476562 -11.25 41.40625 -10.914062 41.3125 -10.59375 C 41.238281 -10.425781 41.1875 -10.269531 41.15625 -10.125 C 41.050781 -9.675781 40.867188 -9.039062 40.609375 -8.21875 C 40.328125 -7.363281 40.050781 -6.476562 39.78125 -5.5625 C 39.519531 -4.644531 39.363281 -3.867188 39.3125 -3.234375 C 39.257812 -2.597656 39.378906 -2.253906 39.671875 -2.203125 C 40.054688 -2.367188 40.398438 -2.59375 40.703125 -2.875 C 40.867188 -2.988281 41.03125 -3.097656 41.1875 -3.203125 C 48.351562 -7.847656 55.285156 -12.832031 61.984375 -18.15625 C 64.628906 -20.300781 67.25 -22.476562 69.84375 -24.6875 C 70.96875 -25.65625 72.09375 -26.613281 73.21875 -27.5625 C 73.25 -27.582031 73.273438 -27.597656 73.296875 -27.609375 C 73.566406 -27.796875 73.804688 -28.007812 74.015625 -28.25 Z M 74.015625 -28.25 "/></g></g></g><g fill="#000000" fill-opacity="1"><g transform="translate(168.525482, 98.135657)"><g><path d="M 6.375 -9.421875 C 5.820312 -8.484375 5.128906 -7.597656 4.296875 -6.765625 C 3.460938 -5.929688 2.472656 -5.296875 1.328125 -4.859375 C 0.179688 -4.429688 -0.753906 -4.367188 -1.484375 -4.671875 C -2.222656 -4.972656 -2.503906 -5.867188 -2.328125 -7.359375 C -2.046875 -8.929688 -1.5625 -10.453125 -0.875 -11.921875 C -0.71875 -12.242188 -0.453125 -12.492188 -0.078125 -12.671875 C 0.179688 -12.785156 0.429688 -12.773438 0.671875 -12.640625 C 0.921875 -12.515625 1.039062 -12.320312 1.03125 -12.0625 C 0.914062 -11.570312 0.773438 -11.070312 0.609375 -10.5625 C 0.453125 -10.0625 0.34375 -9.734375 0.28125 -9.578125 C -0.03125 -8.679688 -0.207031 -7.765625 -0.25 -6.828125 C -0.164062 -6.316406 0.53125 -6.398438 1.84375 -7.078125 C 3.164062 -7.753906 4.382812 -8.800781 5.5 -10.21875 C 6.613281 -11.644531 7.175781 -12.101562 7.1875 -11.59375 C 7.207031 -11.082031 6.9375 -10.359375 6.375 -9.421875 Z M 1.9375 -15.375 C 1.875 -15.3125 1.75 -15.226562 1.5625 -15.125 C 1.382812 -15.019531 1.1875 -14.929688 0.96875 -14.859375 C 0.75 -14.796875 0.5625 -14.804688 0.40625 -14.890625 C 0.257812 -14.972656 0.222656 -15.171875 0.296875 -15.484375 C 0.398438 -16.078125 0.535156 -16.59375 0.703125 -17.03125 C 0.867188 -17.476562 1.09375 -17.972656 1.375 -18.515625 C 1.5625 -18.773438 1.789062 -18.9375 2.0625 -19 C 2.332031 -19.0625 2.570312 -19.023438 2.78125 -18.890625 C 2.988281 -18.765625 3.078125 -18.550781 3.046875 -18.25 C 2.921875 -17.1875 2.550781 -16.226562 1.9375 -15.375 Z M 1.9375 -15.375 "/></g></g></g><g fill="#000000" fill-opacity="1"><g transform="translate(176.08947, 96.907086)"><g><path d="M 8.046875 -9.96875 L 6.46875 -9.765625 C 4.875 -9.554688 3.117188 -9.398438 1.203125 -9.296875 C 1.179688 -9.296875 1.148438 -9.316406 1.109375 -9.359375 C 1.054688 -9.347656 1.007812 -9.363281 0.96875 -9.40625 C 0.9375 -9.445312 0.914062 -9.535156 0.90625 -9.671875 C 0.957031 -10.285156 1.125 -10.632812 1.40625 -10.71875 C 2.894531 -11.164062 4.367188 -11.523438 5.828125 -11.796875 L 6.734375 -11.984375 L 8.359375 -12.25 L 12.71875 -12.953125 C 13.050781 -13.003906 13.378906 -13.03125 13.703125 -13.03125 C 13.929688 -13.007812 14.015625 -12.6875 13.953125 -12.0625 C 13.859375 -11.4375 13.695312 -11.070312 13.46875 -10.96875 C 13.363281 -10.925781 13.253906 -10.894531 13.140625 -10.875 L 12.203125 -10.71875 C 10.878906 -10.457031 9.492188 -10.207031 8.046875 -9.96875 Z M 8.046875 -9.96875 "/></g></g></g><g fill="#000000" fill-opacity="1"><g transform="translate(193.409066, 94.093972)"><g><path d="M 7.796875 -11.375 C 5.878906 -10.28125 4.503906 -9.414062 3.671875 -8.78125 C 3.066406 -8.351562 2.734375 -8.019531 2.671875 -7.78125 C 2.609375 -7.550781 2.75 -7.175781 3.09375 -6.65625 C 3.09375 -6.625 3.117188 -6.585938 3.171875 -6.546875 C 3.554688 -5.898438 3.832031 -5.21875 4 -4.5 C 4.332031 -3.019531 3.238281 -1.769531 0.71875 -0.75 C -1.789062 0.269531 -3.535156 0.570312 -4.515625 0.15625 C -5.503906 -0.257812 -5.894531 -0.921875 -5.6875 -1.828125 C -5.476562 -2.742188 -4.726562 -3.753906 -3.4375 -4.859375 C -2.15625 -5.972656 -1.300781 -6.757812 -0.875 -7.21875 C -0.445312 -7.6875 -0.367188 -8.148438 -0.640625 -8.609375 C -0.734375 -8.765625 -0.828125 -8.910156 -0.921875 -9.046875 C -1.160156 -9.429688 -1.40625 -9.820312 -1.65625 -10.21875 C -2.125 -10.9375 -2.394531 -11.675781 -2.46875 -12.4375 C -2.550781 -13.195312 -2.378906 -13.875 -1.953125 -14.46875 C -1.523438 -15.0625 -0.769531 -15.460938 0.3125 -15.671875 C 0.90625 -15.796875 1.457031 -15.800781 1.96875 -15.6875 C 2.476562 -15.582031 2.914062 -15.300781 3.28125 -14.84375 C 3.570312 -14.53125 3.554688 -14.203125 3.234375 -13.859375 C 3.015625 -13.628906 2.75 -13.5625 2.4375 -13.65625 C 2.25 -13.695312 2.054688 -13.78125 1.859375 -13.90625 C 1.859375 -13.945312 1.859375 -13.96875 1.859375 -13.96875 C 1.773438 -14.007812 1.695312 -14.050781 1.625 -14.09375 C 1.519531 -14.1875 1.414062 -14.257812 1.3125 -14.3125 C 0.925781 -14.5 0.570312 -14.515625 0.25 -14.359375 C -0.0703125 -14.210938 -0.28125 -13.910156 -0.375 -13.453125 C -0.4375 -13.097656 -0.4375 -12.75 -0.375 -12.40625 C -0.28125 -11.976562 -0.117188 -11.582031 0.109375 -11.21875 C 0.265625 -10.976562 0.40625 -10.765625 0.53125 -10.578125 C 0.851562 -10.046875 1.097656 -9.6875 1.265625 -9.5 C 1.441406 -9.3125 1.625 -9.25 1.8125 -9.3125 C 2.007812 -9.375 3.738281 -10.328125 7 -12.171875 C 7.707031 -12.546875 7.972656 -12.28125 7.796875 -11.375 Z M 0.59375 -2.578125 C 1.445312 -3.035156 1.726562 -3.703125 1.4375 -4.578125 C 1.425781 -4.648438 1.40625 -4.722656 1.375 -4.796875 C 1.238281 -5.285156 1.070312 -5.648438 0.875 -5.890625 C 0.6875 -6.128906 0.335938 -6.0625 -0.171875 -5.6875 C -1.390625 -4.707031 -2.484375 -3.613281 -3.453125 -2.40625 C -3.515625 -2.3125 -3.570312 -2.21875 -3.625 -2.125 C -3.625 -2.125 -3.632812 -2.097656 -3.65625 -2.046875 C -3.71875 -1.929688 -3.710938 -1.8125 -3.640625 -1.6875 C -3.566406 -1.570312 -3.441406 -1.53125 -3.265625 -1.5625 C -1.890625 -1.570312 -0.601562 -1.910156 0.59375 -2.578125 Z M 0.59375 -2.578125 "/></g></g></g><g fill="#000000" fill-opacity="1"><g transform="translate(202.000986, 92.69844)"><g><path d="M 6.375 -9.421875 C 5.820312 -8.484375 5.128906 -7.597656 4.296875 -6.765625 C 3.460938 -5.929688 2.472656 -5.296875 1.328125 -4.859375 C 0.179688 -4.429688 -0.753906 -4.367188 -1.484375 -4.671875 C -2.222656 -4.972656 -2.503906 -5.867188 -2.328125 -7.359375 C -2.046875 -8.929688 -1.5625 -10.453125 -0.875 -11.921875 C -0.71875 -12.242188 -0.453125 -12.492188 -0.078125 -12.671875 C 0.179688 -12.785156 0.429688 -12.773438 0.671875 -12.640625 C 0.921875 -12.515625 1.039062 -12.320312 1.03125 -12.0625 C 0.914062 -11.570312 0.773438 -11.070312 0.609375 -10.5625 C 0.453125 -10.0625 0.34375 -9.734375 0.28125 -9.578125 C -0.03125 -8.679688 -0.207031 -7.765625 -0.25 -6.828125 C -0.164062 -6.316406 0.53125 -6.398438 1.84375 -7.078125 C 3.164062 -7.753906 4.382812 -8.800781 5.5 -10.21875 C 6.613281 -11.644531 7.175781 -12.101562 7.1875 -11.59375 C 7.207031 -11.082031 6.9375 -10.359375 6.375 -9.421875 Z M 1.9375 -15.375 C 1.875 -15.3125 1.75 -15.226562 1.5625 -15.125 C 1.382812 -15.019531 1.1875 -14.929688 0.96875 -14.859375 C 0.75 -14.796875 0.5625 -14.804688 0.40625 -14.890625 C 0.257812 -14.972656 0.222656 -15.171875 0.296875 -15.484375 C 0.398438 -16.078125 0.535156 -16.59375 0.703125 -17.03125 C 0.867188 -17.476562 1.09375 -17.972656 1.375 -18.515625 C 1.5625 -18.773438 1.789062 -18.9375 2.0625 -19 C 2.332031 -19.0625 2.570312 -19.023438 2.78125 -18.890625 C 2.988281 -18.765625 3.078125 -18.550781 3.046875 -18.25 C 2.921875 -17.1875 2.550781 -16.226562 1.9375 -15.375 Z M 1.9375 -15.375 "/></g></g></g><g fill="#000000" fill-opacity="1"><g transform="translate(209.564973, 91.469869)"><g><path d="M 15.453125 -13.171875 C 15.535156 -13.222656 15.644531 -13.242188 15.78125 -13.234375 C 15.914062 -13.234375 16.023438 -13.191406 16.109375 -13.109375 C 16.210938 -12.984375 16.226562 -12.835938 16.15625 -12.671875 C 16.09375 -12.515625 15.988281 -12.390625 15.84375 -12.296875 C 14.78125 -11.535156 13.703125 -10.753906 12.609375 -9.953125 C 11.347656 -9.015625 10.078125 -8.078125 8.796875 -7.140625 C 8.597656 -7.023438 8.410156 -6.898438 8.234375 -6.765625 C 7.960938 -6.546875 7.679688 -6.335938 7.390625 -6.140625 C 6.722656 -5.671875 6.335938 -5.046875 6.234375 -4.265625 C 5.890625 -2.410156 5.519531 -0.566406 5.125 1.265625 C 4.613281 3.722656 3.875 6.109375 2.90625 8.421875 C 2.363281 9.742188 1.640625 10.957031 0.734375 12.0625 C -0.316406 13.445312 -1.625 14.421875 -3.1875 14.984375 C -5.78125 15.960938 -8.394531 16.210938 -11.03125 15.734375 C -12.113281 15.523438 -13.085938 15.082031 -13.953125 14.40625 C -15.117188 13.5 -15.351562 12.351562 -14.65625 10.96875 C -14.332031 10.394531 -13.960938 9.835938 -13.546875 9.296875 C -12.609375 8.117188 -11.5625 7.03125 -10.40625 6.03125 C -6.289062 2.363281 -2.019531 -1.097656 2.40625 -4.359375 C 2.4375 -4.359375 2.453125 -4.359375 2.453125 -4.359375 C 2.921875 -4.691406 3.375 -5.046875 3.8125 -5.421875 C 3.875 -5.492188 3.960938 -5.644531 4.078125 -5.875 C 4.191406 -6.113281 4.265625 -6.34375 4.296875 -6.5625 C 4.335938 -6.789062 4.296875 -6.945312 4.171875 -7.03125 C 4.046875 -7.113281 3.78125 -7.019531 3.375 -6.75 C 3.226562 -6.664062 3.085938 -6.578125 2.953125 -6.484375 C 2.597656 -6.234375 2.25 -6.007812 1.90625 -5.8125 C -0.21875 -4.914062 -1.460938 -5.582031 -1.828125 -7.8125 C -1.992188 -9.175781 -1.785156 -10.457031 -1.203125 -11.65625 C -0.628906 -12.863281 0.195312 -13.867188 1.28125 -14.671875 C 2.363281 -15.472656 3.597656 -15.921875 4.984375 -16.015625 C 5.128906 -16.035156 5.273438 -16.035156 5.421875 -16.015625 C 5.804688 -16.023438 6.191406 -16.0625 6.578125 -16.125 C 6.960938 -16.1875 7.335938 -16.328125 7.703125 -16.546875 C 8.097656 -16.796875 8.425781 -16.804688 8.6875 -16.578125 C 8.945312 -16.347656 9.039062 -16.003906 8.96875 -15.546875 C 8.71875 -14.679688 8.484375 -13.8125 8.265625 -12.9375 C 8.085938 -12.382812 7.921875 -11.816406 7.765625 -11.234375 C 7.597656 -10.628906 7.441406 -10.003906 7.296875 -9.359375 C 7.066406 -8.523438 7.078125 -8.109375 7.328125 -8.109375 C 7.585938 -8.117188 7.992188 -8.328125 8.546875 -8.734375 C 8.609375 -8.773438 8.6875 -8.8125 8.78125 -8.84375 C 9.78125 -9.53125 10.789062 -10.226562 11.8125 -10.9375 C 12.519531 -11.394531 13.234375 -11.875 13.953125 -12.375 C 14.421875 -12.675781 14.921875 -12.941406 15.453125 -13.171875 Z M 3.328125 -0.53125 C 3.554688 -1.726562 3.609375 -2.5 3.484375 -2.84375 C 3.367188 -3.195312 3.101562 -3.25 2.6875 -3 C 2.28125 -2.757812 1.757812 -2.359375 1.125 -1.796875 C 0.707031 -1.429688 0.25 -1.066406 -0.25 -0.703125 C -3.226562 1.597656 -6.101562 4.015625 -8.875 6.546875 C -10.113281 7.566406 -11.175781 8.734375 -12.0625 10.046875 C -13 11.441406 -12.785156 12.519531 -11.421875 13.28125 C -10.628906 13.71875 -9.773438 13.976562 -8.859375 14.0625 C -7.953125 14.144531 -6.972656 14.101562 -5.921875 13.9375 C -4.671875 13.832031 -3.566406 13.421875 -2.609375 12.703125 C -1.648438 11.992188 -0.816406 11.023438 -0.109375 9.796875 C 0.316406 8.992188 0.707031 8.171875 1.0625 7.328125 C 2.113281 4.773438 2.867188 2.15625 3.328125 -0.53125 Z M 0.9375 -7.171875 C 1.300781 -7.085938 1.769531 -7.289062 2.34375 -7.78125 C 2.925781 -8.28125 3.5 -8.921875 4.0625 -9.703125 C 4.625 -10.492188 5.046875 -11.273438 5.328125 -12.046875 C 5.609375 -12.828125 5.609375 -13.445312 5.328125 -13.90625 C 5.253906 -14.039062 5.148438 -14.15625 5.015625 -14.25 C 4.765625 -14.46875 4.515625 -14.546875 4.265625 -14.484375 C 4.023438 -14.429688 3.765625 -14.347656 3.484375 -14.234375 C 2.597656 -13.691406 1.863281 -12.90625 1.28125 -11.875 C 0.707031 -10.851562 0.375 -9.875 0.28125 -8.9375 C 0.195312 -8.007812 0.414062 -7.421875 0.9375 -7.171875 Z M 0.9375 -7.171875 "/></g></g></g><g fill="#000000" fill-opacity="1"><g transform="translate(226.128166, 88.779613)"><g><path d="M 13.78125 -12.1875 C 14.03125 -11.945312 13.847656 -11.425781 13.234375 -10.625 C 12.628906 -9.820312 11.957031 -9.125 11.21875 -8.53125 C 10.476562 -7.9375 9.613281 -7.316406 8.625 -6.671875 C 7.945312 -6.242188 7.195312 -6.015625 6.375 -5.984375 C 5.5625 -5.960938 5.082031 -6.382812 4.9375 -7.25 C 4.800781 -8.125 4.863281 -9.019531 5.125 -9.9375 C 5.382812 -10.875 5.398438 -11.332031 5.171875 -11.3125 C 4.941406 -11.300781 4.503906 -11.015625 3.859375 -10.453125 C 2.210938 -8.941406 0.726562 -7.273438 -0.59375 -5.453125 C -0.945312 -4.867188 -1.445312 -4.5 -2.09375 -4.34375 C -2.425781 -4.289062 -2.703125 -4.351562 -2.921875 -4.53125 C -3.148438 -4.71875 -3.210938 -4.941406 -3.109375 -5.203125 C -2.328125 -7.503906 -1.515625 -9.773438 -0.671875 -12.015625 C -0.484375 -12.492188 -0.140625 -12.820312 0.359375 -13 C 0.566406 -13.0625 0.78125 -13.019531 1 -12.875 C 1.21875 -12.738281 1.34375 -12.5625 1.375 -12.34375 C 1.375 -12.132812 1.328125 -11.878906 1.234375 -11.578125 C 1.203125 -11.398438 1.171875 -11.226562 1.140625 -11.0625 C 1.109375 -10.894531 1.109375 -10.757812 1.140625 -10.65625 C 1.179688 -10.5625 1.265625 -10.546875 1.390625 -10.609375 C 1.566406 -10.734375 1.742188 -10.875 1.921875 -11.03125 C 2.367188 -11.382812 2.800781 -11.734375 3.21875 -12.078125 C 3.570312 -12.367188 3.957031 -12.640625 4.375 -12.890625 C 4.789062 -13.140625 5.234375 -13.34375 5.703125 -13.5 C 6.472656 -13.675781 7.046875 -13.585938 7.421875 -13.234375 C 7.804688 -12.890625 7.9375 -12.34375 7.8125 -11.59375 C 7.65625 -10.894531 7.492188 -10.207031 7.328125 -9.53125 C 7.066406 -8.875 7.078125 -8.410156 7.359375 -8.140625 C 7.640625 -7.878906 8.660156 -8.410156 10.421875 -9.734375 L 11.75 -10.84375 C 12.96875 -11.9375 13.644531 -12.382812 13.78125 -12.1875 Z M 13.78125 -12.1875 "/></g></g></g><g fill="#000000" fill-opacity="1"><g transform="translate(240.344588, 86.470529)"><g><path d="M 9.84375 -9.25 C 9.21875 -8.382812 8.445312 -7.609375 7.53125 -6.921875 C 6.613281 -6.234375 5.832031 -5.753906 5.1875 -5.484375 C 4.539062 -5.210938 3.867188 -5.003906 3.171875 -4.859375 C 2.046875 -4.628906 0.972656 -4.625 -0.046875 -4.84375 C -1.722656 -5.207031 -2.460938 -6.328125 -2.265625 -8.203125 C -2.066406 -9.816406 -1.34375 -11.164062 -0.09375 -12.25 C 1.144531 -13.34375 2.503906 -14 3.984375 -14.21875 C 3.984375 -14.21875 4 -14.21875 4.03125 -14.21875 C 4.382812 -14.300781 4.738281 -14.332031 5.09375 -14.3125 C 5.707031 -14.1875 6.128906 -13.90625 6.359375 -13.46875 C 6.585938 -13.03125 6.5625 -12.5 6.28125 -11.875 C 5.664062 -10.488281 4.660156 -9.609375 3.265625 -9.234375 C 2.328125 -8.992188 1.40625 -8.890625 0.5 -8.921875 C 0.332031 -8.921875 0.191406 -8.847656 0.078125 -8.703125 C -0.0234375 -8.566406 -0.0820312 -8.414062 -0.09375 -8.25 C -0.164062 -7.101562 0.289062 -6.445312 1.28125 -6.28125 C 2.519531 -6.082031 3.726562 -6.28125 4.90625 -6.875 C 6.28125 -7.5625 7.519531 -8.632812 8.625 -10.09375 C 9.726562 -11.5625 10.382812 -12.269531 10.59375 -12.21875 C 10.8125 -12.175781 10.921875 -11.945312 10.921875 -11.53125 C 10.835938 -10.875 10.476562 -10.113281 9.84375 -9.25 Z M 1.078125 -11.03125 C 1.015625 -10.925781 0.972656 -10.816406 0.953125 -10.703125 C 0.941406 -10.585938 1.003906 -10.5 1.140625 -10.4375 C 1.628906 -10.238281 2.132812 -10.21875 2.65625 -10.375 C 3.175781 -10.53125 3.59375 -10.800781 3.90625 -11.1875 C 4.21875 -11.582031 4.304688 -12.015625 4.171875 -12.484375 C 4.117188 -12.640625 4.015625 -12.726562 3.859375 -12.75 C 3.703125 -12.78125 3.5625 -12.773438 3.4375 -12.734375 C 2.5 -12.398438 1.710938 -11.832031 1.078125 -11.03125 Z M 1.078125 -11.03125 "/></g></g></g><g fill="#000000" fill-opacity="1"><g transform="translate(251.632385, 84.637123)"><g><path d="M 7.359375 -13.421875 C 7.390625 -12.515625 7.066406 -11.863281 6.390625 -11.46875 C 5.722656 -11.082031 5.4375 -11.398438 5.53125 -12.421875 C 5.625 -13.441406 5.132812 -13.617188 4.0625 -12.953125 C 3 -12.296875 2.164062 -11.53125 1.5625 -10.65625 C 0.613281 -9.320312 -0.191406 -7.910156 -0.859375 -6.421875 C -0.929688 -6.285156 -0.988281 -6.175781 -1.03125 -6.09375 C -1.226562 -5.664062 -1.425781 -5.269531 -1.625 -4.90625 C -1.757812 -4.632812 -1.9375 -4.453125 -2.15625 -4.359375 C -2.375 -4.265625 -2.597656 -4.21875 -2.828125 -4.21875 C -3.054688 -4.207031 -3.238281 -4.265625 -3.375 -4.390625 C -3.519531 -4.515625 -3.5625 -4.6875 -3.5 -4.90625 C -3.414062 -5.269531 -3.300781 -5.648438 -3.15625 -6.046875 C -2.351562 -8.390625 -1.523438 -10.742188 -0.671875 -13.109375 C -0.648438 -13.140625 -0.644531 -13.164062 -0.65625 -13.1875 C -0.53125 -13.5625 -0.378906 -13.90625 -0.203125 -14.21875 C 0.00390625 -14.539062 0.28125 -14.703125 0.625 -14.703125 C 0.976562 -14.710938 1.238281 -14.554688 1.40625 -14.234375 C 1.625 -13.796875 1.789062 -13.554688 1.90625 -13.515625 C 2.019531 -13.472656 2.242188 -13.554688 2.578125 -13.765625 C 3.316406 -14.171875 4.039062 -14.488281 4.75 -14.71875 C 5.46875 -14.957031 6.078125 -15.03125 6.578125 -14.9375 C 7.078125 -14.84375 7.335938 -14.335938 7.359375 -13.421875 Z M 7.359375 -13.421875 "/></g></g></g><g clip-path="url(#37099bda5d)"><g clip-path="url(#968e05dbde)"><path fill="#000000" d="M 262.367188 75 L 266.914062 75 L 266.914062 79.546875 L 262.367188 79.546875 Z M 262.367188 75 " fill-opacity="1" fill-rule="nonzero"/></g></g></svg>